<svg width="1200" height="404" viewBox="0 0 1200 404" fill="none" xmlns="http://www.w3.org/2000/svg">
<path d="M201.463 50.4814L16.791 151.211L83.9443 187.81V288.54L201.463 352.671L318.981 288.54V187.81L352.557 169.511V285.518H386.134V151.211L201.463 50.4814ZM315.959 151.211L201.463 213.664L86.9662 151.211L201.463 88.7588L315.959 151.211ZM285.404 268.73L201.463 314.394L117.521 268.73V206.109L201.463 251.941L285.404 206.109V268.73Z" fill="white"/>
<path d="M472.086 297.5V106.391H600.86V139.705H512.491V185.242H594.234V218.555H512.491V264.186H601.233V297.5H472.086ZM685.053 299.832C674.166 299.832 664.306 297.033 655.472 291.434C646.7 285.773 639.733 277.468 634.57 266.519C629.468 255.508 626.918 242.008 626.918 226.021C626.918 209.597 629.562 195.942 634.849 185.056C640.137 174.107 647.167 165.926 655.939 160.514C664.772 155.039 674.446 152.302 684.959 152.302C692.984 152.302 699.672 153.671 705.022 156.408C710.434 159.083 714.789 162.442 718.086 166.486C721.445 170.467 723.996 174.387 725.738 178.244H726.951V106.391H766.61V297.5H727.417V274.544H725.738C723.872 278.526 721.228 282.476 717.806 286.395C714.447 290.252 710.061 293.456 704.649 296.006C699.299 298.557 692.767 299.832 685.053 299.832ZM697.65 268.199C704.058 268.199 709.47 266.457 713.887 262.973C718.366 259.427 721.787 254.482 724.151 248.136C726.578 241.791 727.791 234.357 727.791 225.834C727.791 217.311 726.609 209.908 724.245 203.625C721.881 197.342 718.459 192.49 713.98 189.068C709.501 185.646 704.058 183.936 697.65 183.936C691.118 183.936 685.613 185.709 681.133 189.255C676.654 192.801 673.264 197.715 670.962 203.998C668.66 210.282 667.51 217.56 667.51 225.834C667.51 234.17 668.66 241.542 670.962 247.949C673.326 254.295 676.717 259.272 681.133 262.88C685.613 266.426 691.118 268.199 697.65 268.199ZM891.208 236.472V154.168H930.96V297.5H892.794V271.465H891.301C888.066 279.863 882.685 286.613 875.158 291.714C867.693 296.815 858.579 299.366 847.817 299.366C838.236 299.366 829.807 297.188 822.528 292.834C815.25 288.479 809.558 282.289 805.452 274.264C801.408 266.239 799.355 256.628 799.293 245.43V154.168H839.045V238.338C839.107 246.799 841.378 253.486 845.857 258.401C850.336 263.315 856.339 265.773 863.867 265.773C868.657 265.773 873.136 264.684 877.304 262.507C881.472 260.267 884.831 256.97 887.382 252.615C889.995 248.261 891.27 242.879 891.208 236.472ZM1082.01 195.04L1045.62 197.28C1045 194.169 1043.66 191.37 1041.61 188.881C1039.55 186.331 1036.85 184.309 1033.49 182.816C1030.19 181.261 1026.24 180.483 1021.64 180.483C1015.48 180.483 1010.28 181.789 1006.05 184.402C1001.82 186.953 999.709 190.374 999.709 194.667C999.709 198.088 1001.08 200.981 1003.82 203.345C1006.55 205.709 1011.25 207.607 1017.91 209.037L1043.85 214.263C1057.78 217.125 1068.17 221.728 1075.01 228.073C1081.86 234.419 1085.28 242.755 1085.28 253.082C1085.28 262.475 1082.51 270.718 1076.97 277.81C1071.5 284.902 1063.97 290.439 1054.39 294.42C1044.87 298.339 1033.89 300.299 1021.45 300.299C1002.48 300.299 987.361 296.349 976.101 288.448C964.903 280.485 958.34 269.661 956.411 255.975L995.51 253.922C996.692 259.707 999.554 264.124 1004.1 267.172C1008.64 270.158 1014.45 271.651 1021.54 271.651C1028.51 271.651 1034.11 270.314 1038.34 267.639C1042.63 264.902 1044.81 261.387 1044.87 257.094C1044.81 253.486 1043.29 250.531 1040.3 248.229C1037.32 245.865 1032.71 244.061 1026.49 242.817L1001.67 237.872C987.672 235.072 977.252 230.22 970.409 223.314C963.628 216.409 960.237 207.607 960.237 196.906C960.237 187.699 962.726 179.768 967.702 173.111C972.741 166.455 979.802 161.323 988.885 157.714C998.03 154.106 1008.73 152.302 1020.98 152.302C1039.09 152.302 1053.33 156.128 1063.72 163.78C1074.17 171.432 1080.27 181.852 1082.01 195.04ZM1186.55 154.168V184.029H1100.23V154.168H1186.55ZM1119.83 119.829H1159.58V253.455C1159.58 257.125 1160.14 259.987 1161.26 262.04C1162.38 264.031 1163.94 265.43 1165.93 266.239C1167.98 267.048 1170.34 267.452 1173.02 267.452C1174.88 267.452 1176.75 267.297 1178.62 266.986C1180.48 266.612 1181.91 266.332 1182.91 266.146L1189.16 295.727C1187.17 296.349 1184.37 297.064 1180.76 297.873C1177.15 298.744 1172.77 299.272 1167.61 299.459C1158.03 299.832 1149.63 298.557 1142.41 295.633C1135.26 292.709 1129.69 288.168 1125.71 282.009C1121.73 275.851 1119.77 268.074 1119.83 258.681V119.829Z" fill="white"/>
</svg>
