<svg width="303" height="303" viewBox="0 0 303 303" fill="none" xmlns="http://www.w3.org/2000/svg">
<path d="M151.5 27.4497L40.1431 88.19L80.6366 110.259V170.999L151.5 209.671L222.364 170.999V110.259L242.611 99.2245V169.177H262.858V88.19L151.5 27.4497ZM220.542 88.19L151.5 125.849L82.4588 88.19L151.5 50.531L220.542 88.19ZM202.117 159.054L151.5 186.589L100.883 159.054V121.294L151.5 148.93L202.117 121.294V159.054Z" fill="url(#paint0_linear_102_4675)"/>
<path d="M70.6387 276.846V233.185H100.058V240.796H79.8697V251.199H98.5448V258.81H79.8697V269.235H100.144V276.846H70.6387ZM119.293 277.379C116.806 277.379 114.553 276.739 112.535 275.46C110.531 274.167 108.939 272.269 107.76 269.768C106.594 267.252 106.012 264.168 106.012 260.516C106.012 256.764 106.616 253.644 107.824 251.157C109.032 248.655 110.638 246.786 112.642 245.55C114.66 244.299 116.87 243.674 119.272 243.674C121.105 243.674 122.633 243.987 123.855 244.612C125.092 245.223 126.087 245.991 126.84 246.914C127.607 247.824 128.19 248.719 128.588 249.601H128.865V233.185H137.926V276.846H128.972V271.601H128.588C128.162 272.511 127.558 273.413 126.776 274.309C126.008 275.19 125.007 275.922 123.77 276.505C122.548 277.087 121.055 277.379 119.293 277.379ZM122.171 270.152C123.635 270.152 124.871 269.754 125.881 268.958C126.904 268.148 127.686 267.018 128.226 265.568C128.78 264.118 129.057 262.42 129.057 260.473C129.057 258.526 128.787 256.835 128.247 255.399C127.707 253.964 126.925 252.855 125.902 252.073C124.879 251.292 123.635 250.901 122.171 250.901C120.679 250.901 119.421 251.306 118.398 252.116C117.374 252.926 116.6 254.049 116.074 255.484C115.548 256.92 115.285 258.583 115.285 260.473C115.285 262.377 115.548 264.062 116.074 265.526C116.614 266.975 117.389 268.112 118.398 268.936C119.421 269.747 120.679 270.152 122.171 270.152ZM166.391 262.903V244.1H175.473V276.846H166.754V270.898H166.413C165.674 272.816 164.444 274.359 162.724 275.524C161.019 276.689 158.937 277.272 156.478 277.272C154.289 277.272 152.364 276.775 150.701 275.78C149.038 274.785 147.737 273.371 146.799 271.537C145.876 269.704 145.407 267.508 145.392 264.95V244.1H154.474V263.33C154.488 265.263 155.007 266.79 156.03 267.913C157.054 269.036 158.425 269.597 160.145 269.597C161.239 269.597 162.263 269.349 163.215 268.851C164.167 268.34 164.935 267.586 165.517 266.591C166.114 265.597 166.405 264.367 166.391 262.903ZM209.983 253.438L201.668 253.95C201.526 253.239 201.221 252.599 200.752 252.031C200.283 251.448 199.664 250.986 198.897 250.645C198.144 250.29 197.241 250.112 196.189 250.112C194.782 250.112 193.596 250.411 192.629 251.008C191.663 251.59 191.179 252.372 191.179 253.353C191.179 254.134 191.492 254.795 192.118 255.335C192.743 255.875 193.816 256.309 195.337 256.636L201.263 257.829C204.447 258.483 206.82 259.535 208.384 260.985C209.947 262.434 210.729 264.339 210.729 266.698C210.729 268.844 210.096 270.727 208.831 272.347C207.581 273.968 205.861 275.233 203.672 276.142C201.498 277.038 198.989 277.485 196.147 277.485C191.812 277.485 188.358 276.583 185.786 274.778C183.228 272.959 181.728 270.486 181.288 267.359L190.22 266.89C190.49 268.212 191.144 269.221 192.181 269.917C193.219 270.599 194.548 270.94 196.168 270.94C197.76 270.94 199.039 270.635 200.005 270.024C200.986 269.398 201.484 268.595 201.498 267.615C201.484 266.79 201.135 266.115 200.453 265.589C199.771 265.049 198.719 264.637 197.298 264.353L191.627 263.223C188.429 262.584 186.049 261.475 184.485 259.897C182.936 258.32 182.162 256.309 182.162 253.864C182.162 251.761 182.73 249.949 183.867 248.428C185.018 246.907 186.632 245.735 188.707 244.91C190.796 244.086 193.24 243.674 196.04 243.674C200.176 243.674 203.431 244.548 205.804 246.296C208.192 248.044 209.585 250.425 209.983 253.438ZM233.865 244.1V250.922H214.145V244.1H233.865ZM218.622 236.255H227.704V266.783C227.704 267.622 227.832 268.276 228.087 268.745C228.343 269.199 228.699 269.519 229.153 269.704C229.622 269.889 230.162 269.981 230.774 269.981C231.2 269.981 231.626 269.946 232.053 269.875C232.479 269.789 232.806 269.725 233.033 269.683L234.462 276.441C234.007 276.583 233.367 276.746 232.543 276.931C231.719 277.13 230.717 277.251 229.537 277.293C227.348 277.379 225.43 277.087 223.781 276.419C222.147 275.751 220.875 274.714 219.965 273.307C219.055 271.9 218.608 270.123 218.622 267.977V236.255Z" fill="url(#paint1_linear_102_4675)"/>
<defs>
<linearGradient id="paint0_linear_102_4675" x1="151.499" y1="118.56" x2="151.499" y2="208.35" gradientUnits="userSpaceOnUse">
<stop stop-color="#111928"/>
<stop offset="1" stop-color="#6B7280"/>
</linearGradient>
<linearGradient id="paint1_linear_102_4675" x1="150.808" y1="225.36" x2="150.808" y2="265.255" gradientUnits="userSpaceOnUse">
<stop/>
<stop offset="1" stop-color="#6B7280"/>
</linearGradient>
</defs>
</svg>
