<svg width="601" height="601" viewBox="0 0 601 601" fill="none" xmlns="http://www.w3.org/2000/svg">
<path d="M300.5 54.8555L79.9907 175.133L160.176 218.834V339.112L300.5 415.689L440.824 339.112V218.834L480.917 196.984V335.504H521.01V175.133L300.5 54.8555ZM437.216 175.133L300.5 249.706L163.784 175.133L300.5 100.561L437.216 175.133ZM400.732 315.458L300.5 369.983L200.269 315.458V240.685L300.5 295.411L400.732 240.685V315.458Z" fill="white"/>
<path d="M140.378 548.036V461.58H198.635V476.65H158.658V497.251H195.638V512.322H158.658V532.965H198.804V548.036H140.378ZM236.724 549.092C231.799 549.092 227.338 547.825 223.342 545.292C219.374 542.731 216.221 538.974 213.886 534.021C211.578 529.039 210.424 522.932 210.424 515.699C210.424 508.27 211.62 502.092 214.012 497.167C216.404 492.214 219.585 488.513 223.553 486.064C227.549 483.588 231.925 482.349 236.682 482.349C240.312 482.349 243.338 482.969 245.758 484.207C248.206 485.417 250.176 486.937 251.668 488.766C253.188 490.567 254.342 492.34 255.13 494.085H255.678V461.58H273.62V548.036H255.89V537.651H255.13C254.285 539.452 253.089 541.24 251.541 543.013C250.022 544.757 248.038 546.207 245.589 547.361C243.169 548.515 240.214 549.092 236.724 549.092ZM242.423 534.781C245.322 534.781 247.77 533.993 249.768 532.417C251.795 530.812 253.343 528.575 254.412 525.704C255.51 522.834 256.058 519.471 256.058 515.615C256.058 511.759 255.524 508.41 254.454 505.568C253.385 502.725 251.837 500.53 249.811 498.982C247.784 497.434 245.322 496.66 242.423 496.66C239.468 496.66 236.977 497.462 234.951 499.067C232.925 500.671 231.391 502.894 230.349 505.737C229.308 508.579 228.787 511.872 228.787 515.615C228.787 519.386 229.308 522.721 230.349 525.62C231.419 528.491 232.953 530.742 234.951 532.374C236.977 533.979 239.468 534.781 242.423 534.781ZM329.988 520.427V483.194H347.971V548.036H330.705V536.258H330.03C328.566 540.057 326.132 543.111 322.727 545.419C319.349 547.727 315.226 548.88 310.358 548.88C306.023 548.88 302.21 547.895 298.917 545.925C295.625 543.955 293.049 541.155 291.192 537.525C289.363 533.894 288.434 529.546 288.406 524.48V483.194H306.389V521.272C306.417 525.099 307.445 528.125 309.471 530.348C311.497 532.571 314.213 533.683 317.619 533.683C319.786 533.683 321.812 533.19 323.698 532.205C325.583 531.192 327.103 529.701 328.257 527.731C329.439 525.761 330.016 523.326 329.988 520.427ZM416.307 501.684L399.843 502.697C399.562 501.29 398.956 500.023 398.028 498.898C397.099 497.744 395.875 496.829 394.355 496.154C392.863 495.45 391.076 495.098 388.994 495.098C386.208 495.098 383.858 495.689 381.944 496.871C380.03 498.025 379.073 499.573 379.073 501.515C379.073 503.063 379.692 504.372 380.931 505.441C382.169 506.511 384.294 507.369 387.305 508.016L399.041 510.38C405.345 511.675 410.045 513.757 413.141 516.628C416.237 519.499 417.784 523.27 417.784 527.942C417.784 532.191 416.532 535.92 414.027 539.129C411.551 542.337 408.145 544.842 403.811 546.643C399.505 548.416 394.538 549.303 388.909 549.303C380.326 549.303 373.487 547.515 368.393 543.941C363.327 540.339 360.358 535.442 359.485 529.25L377.174 528.322C377.708 530.939 379.003 532.937 381.057 534.316C383.112 535.667 385.743 536.343 388.952 536.343C392.104 536.343 394.636 535.737 396.55 534.527C398.492 533.289 399.477 531.699 399.505 529.757C399.477 528.125 398.788 526.788 397.437 525.747C396.086 524.677 394.003 523.861 391.189 523.298L379.96 521.061C373.627 519.794 368.913 517.599 365.818 514.475C362.75 511.351 361.216 507.369 361.216 502.528C361.216 498.363 362.342 494.775 364.593 491.763C366.873 488.752 370.067 486.43 374.176 484.798C378.313 483.166 383.154 482.349 388.698 482.349C396.888 482.349 403.333 484.08 408.033 487.542C412.761 491.004 415.519 495.718 416.307 501.684ZM463.598 483.194V496.703H424.549V483.194H463.598ZM433.415 467.659H451.398V528.111C451.398 529.771 451.651 531.066 452.158 531.994C452.665 532.895 453.368 533.528 454.269 533.894C455.198 534.26 456.267 534.443 457.477 534.443C458.321 534.443 459.166 534.373 460.01 534.232C460.854 534.063 461.502 533.936 461.952 533.852L464.78 547.234C463.88 547.515 462.613 547.839 460.981 548.205C459.349 548.599 457.365 548.838 455.029 548.923C450.695 549.092 446.895 548.515 443.631 547.192C440.394 545.869 437.875 543.815 436.074 541.028C434.273 538.242 433.386 534.724 433.415 530.475V467.659Z" fill="white"/>
</svg>
