<svg width="501" height="501" viewBox="0 0 501 501" fill="none" xmlns="http://www.w3.org/2000/svg">
<path d="M250.061 45.3574L66.3032 145.589L133.124 182.006V282.238L250.061 346.052L366.998 282.238V182.006L400.408 163.798V279.231H433.819V145.589L250.061 45.3574ZM363.991 145.589L250.061 207.733L136.131 145.589L250.061 83.4454L363.991 145.589ZM333.587 262.526L250.061 307.964L166.535 262.526V200.215L250.061 245.821L333.587 200.215V262.526Z" fill="white"/>
<path d="M116.627 457.341V385.294H165.174V397.853H131.859V415.02H162.676V427.579H131.859V444.782H165.315V457.341H116.627ZM196.915 458.22C192.81 458.22 189.093 457.165 185.763 455.054C182.456 452.92 179.829 449.789 177.883 445.661C175.96 441.51 174.998 436.421 174.998 430.394C174.998 424.202 175.995 419.054 177.988 414.95C179.982 410.822 182.632 407.738 185.939 405.698C189.269 403.634 192.916 402.602 196.88 402.602C199.905 402.602 202.426 403.118 204.443 404.15C206.483 405.158 208.125 406.425 209.368 407.949C210.635 409.45 211.596 410.928 212.253 412.382H212.71V385.294H227.661V457.341H212.886V448.687H212.253C211.549 450.188 210.553 451.677 209.263 453.154C207.996 454.609 206.343 455.816 204.302 456.778C202.285 457.74 199.823 458.22 196.915 458.22ZM201.664 446.295C204.08 446.295 206.12 445.638 207.785 444.324C209.474 442.988 210.764 441.123 211.655 438.731C212.569 436.339 213.027 433.536 213.027 430.323C213.027 427.11 212.581 424.319 211.69 421.95C210.799 419.582 209.509 417.752 207.82 416.463C206.132 415.173 204.08 414.528 201.664 414.528C199.201 414.528 197.126 415.196 195.437 416.533C193.749 417.87 192.47 419.722 191.603 422.091C190.735 424.46 190.301 427.204 190.301 430.323C190.301 433.466 190.735 436.245 191.603 438.661C192.494 441.053 193.772 442.929 195.437 444.289C197.126 445.626 199.201 446.295 201.664 446.295ZM274.634 434.334V403.306H289.621V457.341H275.232V447.526H274.67C273.45 450.692 271.421 453.237 268.584 455.16C265.769 457.083 262.333 458.044 258.276 458.044C254.664 458.044 251.486 457.224 248.743 455.582C245.999 453.94 243.853 451.607 242.305 448.581C240.78 445.556 240.006 441.932 239.983 437.711V403.306H254.969V435.037C254.993 438.227 255.849 440.748 257.537 442.601C259.226 444.453 261.489 445.38 264.327 445.38C266.133 445.38 267.821 444.969 269.393 444.149C270.964 443.304 272.231 442.061 273.192 440.42C274.177 438.778 274.658 436.749 274.634 434.334ZM346.567 418.714L332.847 419.558C332.613 418.386 332.109 417.33 331.335 416.392C330.561 415.431 329.54 414.668 328.274 414.106C327.031 413.519 325.542 413.226 323.806 413.226C321.484 413.226 319.526 413.719 317.931 414.704C316.337 415.665 315.539 416.955 315.539 418.573C315.539 419.863 316.055 420.954 317.087 421.845C318.119 422.736 319.89 423.451 322.399 423.991L332.179 425.961C337.432 427.04 341.349 428.775 343.929 431.167C346.509 433.56 347.798 436.702 347.798 440.595C347.798 444.137 346.755 447.244 344.668 449.918C342.604 452.592 339.766 454.679 336.154 456.18C332.566 457.657 328.426 458.396 323.736 458.396C316.583 458.396 310.884 456.907 306.639 453.928C302.417 450.926 299.943 446.846 299.216 441.686L313.956 440.912C314.402 443.093 315.48 444.758 317.193 445.908C318.905 447.033 321.097 447.596 323.771 447.596C326.398 447.596 328.509 447.092 330.103 446.083C331.722 445.052 332.542 443.726 332.566 442.108C332.542 440.748 331.968 439.634 330.842 438.766C329.716 437.875 327.981 437.195 325.636 436.726L316.278 434.861C311.001 433.806 307.073 431.977 304.493 429.373C301.936 426.77 300.658 423.451 300.658 419.418C300.658 415.947 301.596 412.956 303.473 410.447C305.372 407.937 308.034 406.003 311.458 404.642C314.906 403.282 318.94 402.602 323.56 402.602C330.385 402.602 335.755 404.044 339.672 406.929C343.612 409.814 345.911 413.742 346.567 418.714ZM385.977 403.306V414.563H353.436V403.306H385.977ZM360.824 390.36H375.81V440.736C375.81 442.12 376.021 443.199 376.443 443.973C376.865 444.723 377.452 445.251 378.202 445.556C378.976 445.861 379.867 446.013 380.876 446.013C381.579 446.013 382.283 445.954 382.986 445.837C383.69 445.696 384.23 445.591 384.605 445.521L386.962 456.672C386.211 456.907 385.156 457.177 383.796 457.482C382.435 457.81 380.782 458.009 378.835 458.08C375.224 458.22 372.057 457.74 369.337 456.637C366.64 455.535 364.541 453.823 363.04 451.501C361.539 449.179 360.8 446.248 360.824 442.706V390.36Z" fill="white"/>
</svg>
