<svg width="137" height="46" viewBox="0 0 137 46" fill="none" xmlns="http://www.w3.org/2000/svg">
<path d="M23.0003 5.75L1.91699 17.25L9.58366 21.4283V32.9283L23.0003 40.25L36.417 32.9283V21.4283L40.2503 19.3392V32.5833H44.0837V17.25L23.0003 5.75ZM36.072 17.25L23.0003 24.38L9.92866 17.25L23.0003 10.12L36.072 17.25ZM32.5837 30.6667L23.0003 35.88L13.417 30.6667V23.5175L23.0003 28.75L32.5837 23.5175V30.6667Z" fill="url(#paint0_linear_168_738)"/>
<path d="M53.8963 33.5V11.6818H68.598V15.4851H58.5092V20.6839H67.8416V24.4872H58.5092V29.6967H68.6406V33.5H53.8963ZM78.2101 33.7663C76.9672 33.7663 75.8414 33.4467 74.8329 32.8075C73.8315 32.1612 73.036 31.2131 72.4466 29.9631C71.8642 28.706 71.573 27.1648 71.573 25.3395C71.573 23.4645 71.8748 21.9055 72.4785 20.6626C73.0822 19.4126 73.8848 18.4787 74.8862 17.8608C75.8947 17.2358 76.9991 16.9233 78.1994 16.9233C79.1156 16.9233 79.8791 17.0795 80.4899 17.392C81.1078 17.6974 81.6049 18.081 81.9814 18.5426C82.3649 18.9972 82.6561 19.4446 82.8549 19.8849H82.9934V11.6818H87.5211V33.5H83.0467V30.8793H82.8549C82.6419 31.3338 82.34 31.7848 81.9494 32.2322C81.5659 32.6726 81.0652 33.0384 80.4473 33.3295C79.8365 33.6207 79.0907 33.7663 78.2101 33.7663ZM79.6483 30.1548C80.3798 30.1548 80.9977 29.956 81.502 29.5582C82.0133 29.1534 82.4039 28.5888 82.6738 27.8643C82.9508 27.1399 83.0893 26.2912 83.0893 25.3182C83.0893 24.3452 82.9544 23.5 82.6845 22.7827C82.4146 22.0653 82.024 21.5114 81.5126 21.1207C81.0012 20.7301 80.3798 20.5348 79.6483 20.5348C78.9025 20.5348 78.274 20.7372 77.7626 21.142C77.2512 21.5469 76.8642 22.108 76.6014 22.8253C76.3386 23.5426 76.2072 24.3736 76.2072 25.3182C76.2072 26.2699 76.3386 27.1115 76.6014 27.843C76.8713 28.5675 77.2583 29.1357 77.7626 29.5476C78.274 29.9524 78.9025 30.1548 79.6483 30.1548ZM101.746 26.5327V17.1364H106.284V33.5H101.927V30.5277H101.757C101.387 31.4865 100.773 32.2571 99.9137 32.8395C99.0614 33.4219 98.021 33.7131 96.7923 33.7131C95.6985 33.7131 94.7362 33.4645 93.9052 32.9673C93.0742 32.4702 92.4244 31.7635 91.9556 30.8473C91.494 29.9311 91.2596 28.8338 91.2525 27.5554V17.1364H95.7908V26.7457C95.7979 27.7116 96.0572 28.4751 96.5685 29.0362C97.0799 29.5973 97.7653 29.8778 98.6246 29.8778C99.1715 29.8778 99.6829 29.7536 100.159 29.505C100.635 29.2493 101.018 28.8729 101.309 28.3757C101.608 27.8786 101.753 27.2642 101.746 26.5327ZM123.53 21.8026L119.375 22.0582C119.304 21.7031 119.151 21.3835 118.917 21.0994C118.682 20.8082 118.373 20.5774 117.99 20.407C117.613 20.2294 117.162 20.1406 116.637 20.1406C115.934 20.1406 115.341 20.2898 114.858 20.5881C114.375 20.8793 114.133 21.2699 114.133 21.7599C114.133 22.1506 114.29 22.4808 114.602 22.7507C114.915 23.0206 115.451 23.2372 116.211 23.4006L119.172 23.9972C120.763 24.3239 121.949 24.8494 122.731 25.5739C123.512 26.2983 123.903 27.25 123.903 28.429C123.903 29.5014 123.586 30.4425 122.954 31.2521C122.329 32.0618 121.47 32.6939 120.376 33.1484C119.29 33.5959 118.036 33.8196 116.616 33.8196C114.449 33.8196 112.724 33.3686 111.438 32.4666C110.16 31.5575 109.41 30.3217 109.19 28.7592L113.654 28.5249C113.789 29.1854 114.116 29.6896 114.634 30.0376C115.153 30.3786 115.817 30.549 116.626 30.549C117.422 30.549 118.061 30.3963 118.544 30.0909C119.034 29.7784 119.282 29.3771 119.29 28.8871C119.282 28.4751 119.108 28.1378 118.768 27.875C118.427 27.6051 117.901 27.3991 117.191 27.2571L114.357 26.6925C112.759 26.3729 111.569 25.8189 110.788 25.0305C110.014 24.2422 109.627 23.2372 109.627 22.0156C109.627 20.9645 109.911 20.0589 110.479 19.299C111.055 18.5391 111.861 17.9531 112.898 17.5412C113.942 17.1293 115.163 16.9233 116.562 16.9233C118.629 16.9233 120.256 17.3601 121.442 18.2337C122.635 19.1072 123.331 20.2969 123.53 21.8026ZM135.464 17.1364V20.5455H125.61V17.1364H135.464ZM127.847 13.2159H132.385V28.4716C132.385 28.8906 132.449 29.2173 132.577 29.4517C132.705 29.679 132.882 29.8388 133.11 29.9311C133.344 30.0234 133.614 30.0696 133.919 30.0696C134.132 30.0696 134.346 30.0518 134.559 30.0163C134.772 29.9737 134.935 29.9418 135.049 29.9205L135.762 33.2976C135.535 33.3686 135.216 33.4503 134.804 33.5426C134.392 33.642 133.891 33.7024 133.301 33.7237C132.208 33.7663 131.249 33.6207 130.425 33.2869C129.608 32.9531 128.973 32.4347 128.518 31.7315C128.064 31.0284 127.84 30.1406 127.847 29.0682V13.2159Z" fill="url(#paint1_linear_168_738)"/>
<defs>
<linearGradient id="paint0_linear_168_738" x1="23.0001" y1="23" x2="23.0001" y2="40" gradientUnits="userSpaceOnUse">
<stop stop-color="#111928"/>
<stop offset="1" stop-color="#6B7280"/>
</linearGradient>
<linearGradient id="paint1_linear_168_738" x1="94.2571" y1="11" x2="94.2571" y2="38" gradientUnits="userSpaceOnUse">
<stop/>
<stop offset="1" stop-color="#6B7280"/>
</linearGradient>
</defs>
</svg>
