<svg width="303" height="303" viewBox="0 0 303 303" fill="none" xmlns="http://www.w3.org/2000/svg">
<rect width="303" height="303" fill="white"/>
<path d="M151.5 17.4072L31.1094 83.0749L74.8878 106.934V172.602L151.5 214.41L228.112 172.602V106.934L250.002 95.0045V170.632H271.891V83.0749L151.5 17.4072ZM226.142 83.0749L151.5 123.789L76.8579 83.0749L151.5 42.361L226.142 83.0749ZM206.223 159.687L151.5 189.457L96.7771 159.687V118.864L151.5 148.743L206.223 118.864V159.687Z" fill="url(#paint0_linear_102_4675)"/>
<path d="M64.0788 286.6V239.397H95.8851V247.625H74.0586V258.873H94.2487V267.101H74.0586V278.371H95.9773V286.6H64.0788ZM116.68 287.176C113.991 287.176 111.556 286.484 109.374 285.101C107.207 283.703 105.487 281.652 104.211 278.948C102.951 276.228 102.321 272.894 102.321 268.945C102.321 264.888 102.974 261.516 104.28 258.827C105.586 256.122 107.323 254.102 109.489 252.765C111.671 251.413 114.06 250.737 116.657 250.737C118.639 250.737 120.291 251.075 121.612 251.751C122.949 252.412 124.025 253.241 124.839 254.24C125.669 255.224 126.299 256.192 126.729 257.144H127.029V239.397H136.824V286.6H127.144V280.93H126.729C126.268 281.913 125.615 282.889 124.77 283.857C123.94 284.81 122.857 285.601 121.52 286.231C120.199 286.861 118.586 287.176 116.68 287.176ZM119.792 279.363C121.374 279.363 122.711 278.932 123.802 278.072C124.908 277.196 125.753 275.974 126.337 274.407C126.937 272.84 127.236 271.004 127.236 268.899C127.236 266.794 126.944 264.965 126.36 263.413C125.776 261.861 124.931 260.663 123.825 259.818C122.719 258.973 121.374 258.55 119.792 258.55C118.178 258.55 116.818 258.988 115.712 259.864C114.606 260.74 113.768 261.954 113.2 263.505C112.631 265.057 112.347 266.855 112.347 268.899C112.347 270.958 112.631 272.778 113.2 274.361C113.784 275.928 114.621 277.158 115.712 278.049C116.818 278.925 118.178 279.363 119.792 279.363ZM167.599 271.526V251.198H177.418V286.6H167.991V280.169H167.622C166.823 282.244 165.494 283.911 163.635 285.171C161.791 286.431 159.54 287.061 156.882 287.061C154.515 287.061 152.433 286.523 150.636 285.447C148.838 284.372 147.432 282.843 146.418 280.861C145.419 278.879 144.912 276.505 144.897 273.739V251.198H154.715V271.987C154.731 274.077 155.291 275.729 156.398 276.942C157.504 278.156 158.987 278.763 160.846 278.763C162.029 278.763 163.135 278.494 164.165 277.957C165.194 277.403 166.024 276.589 166.654 275.514C167.299 274.438 167.614 273.109 167.599 271.526ZM214.727 261.293L205.738 261.846C205.584 261.078 205.254 260.386 204.747 259.772C204.24 259.142 203.571 258.642 202.742 258.274C201.927 257.889 200.951 257.697 199.814 257.697C198.293 257.697 197.01 258.02 195.965 258.665C194.921 259.295 194.398 260.14 194.398 261.201C194.398 262.046 194.736 262.76 195.412 263.344C196.088 263.928 197.248 264.397 198.893 264.75L205.3 266.041C208.742 266.748 211.308 267.885 212.998 269.452C214.688 271.019 215.533 273.078 215.533 275.629C215.533 277.949 214.849 279.985 213.482 281.736C212.13 283.488 210.271 284.856 207.904 285.839C205.553 286.807 202.841 287.291 199.768 287.291C195.082 287.291 191.348 286.315 188.567 284.364C185.801 282.397 184.18 279.724 183.704 276.343L193.361 275.836C193.653 277.265 194.36 278.356 195.481 279.109C196.603 279.847 198.04 280.215 199.791 280.215C201.512 280.215 202.895 279.885 203.94 279.224C205 278.548 205.538 277.68 205.553 276.62C205.538 275.729 205.162 274.999 204.424 274.43C203.687 273.846 202.549 273.401 201.013 273.093L194.882 271.872C191.425 271.18 188.851 269.982 187.161 268.276C185.486 266.571 184.649 264.397 184.649 261.754C184.649 259.48 185.263 257.521 186.493 255.877C187.737 254.233 189.481 252.965 191.725 252.074C193.983 251.182 196.626 250.737 199.653 250.737C204.124 250.737 207.643 251.682 210.209 253.572C212.79 255.462 214.296 258.035 214.727 261.293ZM240.546 251.198V258.573H219.227V251.198H240.546ZM224.067 242.716H233.885V275.721C233.885 276.627 234.023 277.334 234.3 277.841C234.577 278.333 234.961 278.679 235.452 278.879C235.959 279.078 236.543 279.178 237.204 279.178C237.665 279.178 238.126 279.14 238.587 279.063C239.048 278.971 239.401 278.902 239.647 278.855L241.191 286.162C240.7 286.315 240.008 286.492 239.117 286.692C238.226 286.907 237.143 287.038 235.867 287.084C233.501 287.176 231.427 286.861 229.644 286.139C227.877 285.416 226.502 284.295 225.519 282.774C224.535 281.252 224.051 279.332 224.067 277.012V242.716Z" fill="url(#paint1_linear_102_4675)"/>
<defs>
<linearGradient id="paint0_linear_102_4675" x1="151.499" y1="115.909" x2="151.499" y2="212.983" gradientUnits="userSpaceOnUse">
<stop stop-color="#111928"/>
<stop offset="1" stop-color="#6B7280"/>
</linearGradient>
<linearGradient id="paint1_linear_102_4675" x1="150.752" y1="231.373" x2="150.752" y2="274.504" gradientUnits="userSpaceOnUse">
<stop/>
<stop offset="1" stop-color="#6B7280"/>
</linearGradient>
</defs>
</svg>
