<svg width="1000" height="336" viewBox="0 0 1000 336" fill="none" xmlns="http://www.w3.org/2000/svg">
<path d="M167.885 41.9702L13.9922 125.912L69.9533 156.411V240.352L167.885 293.795L265.817 240.352V156.411L293.798 141.161V237.834H321.778V125.912L167.885 41.9702ZM263.299 125.912L167.885 177.956L72.4715 125.912L167.885 73.868L263.299 125.912ZM237.836 223.844L167.885 261.897L97.9338 223.844V171.66L167.885 209.853L237.836 171.66V223.844Z" fill="url(#paint0_linear_319_1366)"/>
<path d="M393.403 247.653V88.396H500.715V116.157H427.074V154.105H495.194V181.866H427.074V219.892H501.026V247.653H393.403ZM570.876 249.597C561.804 249.597 553.587 247.264 546.225 242.598C538.916 237.881 533.109 230.96 528.806 221.836C524.555 212.66 522.43 201.41 522.43 188.087C522.43 174.401 524.633 163.022 529.04 153.949C533.446 144.825 539.304 138.008 546.614 133.498C553.975 128.936 562.037 126.655 570.798 126.655C577.486 126.655 583.058 127.795 587.517 130.077C592.027 132.306 595.656 135.105 598.404 138.475C601.203 141.793 603.328 145.059 604.78 148.273H605.791V88.396H638.84V247.653H606.18V228.523H604.78C603.225 231.841 601.022 235.133 598.17 238.399C595.371 241.613 591.716 244.283 587.206 246.409C582.747 248.534 577.304 249.597 570.876 249.597ZM581.374 223.236C586.713 223.236 591.224 221.784 594.904 218.881C598.637 215.926 601.488 211.804 603.458 206.517C605.48 201.229 606.491 195.034 606.491 187.932C606.491 180.829 605.506 174.66 603.536 169.424C601.566 164.188 598.715 160.145 594.982 157.293C591.249 154.442 586.713 153.016 581.374 153.016C575.93 153.016 571.342 154.494 567.61 157.449C563.877 160.404 561.052 164.499 559.134 169.735C557.216 174.971 556.256 181.037 556.256 187.932C556.256 194.878 557.216 201.021 559.134 206.361C561.104 211.649 563.929 215.796 567.61 218.803C571.342 221.758 575.93 223.236 581.374 223.236ZM742.672 196.796V128.21H775.798V247.653H743.994V225.957H742.749C740.054 232.956 735.569 238.581 729.297 242.832C723.076 247.083 715.481 249.208 706.512 249.208C698.529 249.208 691.504 247.394 685.439 243.765C679.373 240.136 674.63 234.978 671.208 228.29C667.839 221.603 666.128 213.593 666.076 204.262V128.21H699.203V198.352C699.255 205.402 701.147 210.975 704.879 215.071C708.612 219.166 713.615 221.214 719.887 221.214C723.879 221.214 727.612 220.306 731.085 218.492C734.559 216.626 737.358 213.878 739.483 210.249C741.661 206.62 742.724 202.136 742.672 196.796ZM901.676 162.27L871.349 164.136C870.83 161.544 869.716 159.211 868.005 157.138C866.294 155.012 864.039 153.327 861.239 152.083C858.492 150.787 855.2 150.139 851.364 150.139C846.231 150.139 841.903 151.228 838.377 153.405C834.852 155.531 833.09 158.382 833.09 161.959C833.09 164.81 834.23 167.221 836.511 169.191C838.792 171.161 842.706 172.742 848.253 173.934L869.871 178.289C881.484 180.674 890.141 184.51 895.844 189.798C901.546 195.086 904.397 202.032 904.397 210.638C904.397 218.466 902.091 225.335 897.477 231.245C892.915 237.155 886.642 241.769 878.658 245.087C870.726 248.353 861.576 249.986 851.208 249.986C835.397 249.986 822.799 246.694 813.416 240.11C804.084 233.474 798.615 224.454 797.008 213.049L829.59 211.338C830.575 216.159 832.96 219.84 836.744 222.38C840.529 224.869 845.376 226.113 851.286 226.113C857.092 226.113 861.758 224.998 865.283 222.769C868.86 220.488 870.675 217.559 870.726 213.982C870.675 210.975 869.404 208.513 866.916 206.594C864.428 204.624 860.591 203.121 855.407 202.084L834.723 197.963C823.058 195.63 814.375 191.586 808.672 185.832C803.022 180.078 800.196 172.742 800.196 163.825C800.196 156.153 802.27 149.543 806.417 143.996C810.616 138.449 816.5 134.172 824.069 131.165C831.69 128.158 840.607 126.655 850.819 126.655C865.905 126.655 877.777 129.843 886.434 136.22C895.144 142.596 900.224 151.28 901.676 162.27ZM988.789 128.21V153.094H916.859V128.21H988.789ZM933.189 99.5938H966.316V210.949C966.316 214.008 966.782 216.392 967.715 218.103C968.648 219.762 969.944 220.929 971.603 221.603C973.314 222.276 975.284 222.613 977.513 222.613C979.069 222.613 980.624 222.484 982.179 222.225C983.734 221.914 984.927 221.68 985.756 221.525L990.966 246.175C989.307 246.694 986.974 247.29 983.968 247.964C980.961 248.69 977.306 249.13 973.003 249.286C965.02 249.597 958.021 248.534 952.007 246.098C946.046 243.661 941.406 239.877 938.088 234.744C934.77 229.612 933.137 223.132 933.189 215.304V99.5938Z" fill="url(#paint1_linear_319_1366)"/>
<defs>
<linearGradient id="paint0_linear_319_1366" x1="167.883" y1="167.883" x2="167.883" y2="291.97" gradientUnits="userSpaceOnUse">
<stop stop-color="#111928"/>
<stop offset="1" stop-color="#6B7280"/>
</linearGradient>
<linearGradient id="paint1_linear_319_1366" x1="686.796" y1="80.1862" x2="686.796" y2="276.986" gradientUnits="userSpaceOnUse">
<stop/>
<stop offset="1" stop-color="#6B7280"/>
</linearGradient>
</defs>
</svg>
