<svg width="1000" height="336" viewBox="0 0 1000 336" fill="none" xmlns="http://www.w3.org/2000/svg">
<path d="M167.887 41.9702L13.9941 125.912L69.9552 156.411V240.352L167.887 293.795L265.819 240.352V156.411L293.799 141.161V237.834H321.78V125.912L167.887 41.9702ZM263.301 125.912L167.887 177.956L72.4735 125.912L167.887 73.868L263.301 125.912ZM237.838 223.844L167.887 261.897L97.9357 223.844V171.66L167.887 209.853L237.838 171.66V223.844Z" fill="white"/>
<path d="M393.407 247.653V88.396H500.719V116.157H427.078V154.105H495.198V181.866H427.078V219.892H501.03V247.653H393.407ZM570.88 249.597C561.807 249.597 553.591 247.264 546.229 242.598C538.919 237.881 533.113 230.96 528.81 221.836C524.559 212.66 522.434 201.41 522.434 188.087C522.434 174.401 524.637 163.022 529.044 153.949C533.45 144.825 539.308 138.008 546.618 133.498C553.979 128.936 562.041 126.655 570.802 126.655C577.489 126.655 583.062 127.795 587.521 130.077C592.031 132.306 595.66 135.105 598.407 138.475C601.207 141.793 603.332 145.059 604.784 148.273H605.795V88.396H638.844V247.653H606.184V228.523H604.784C603.229 231.841 601.025 235.133 598.174 238.399C595.375 241.613 591.72 244.283 587.21 246.409C582.751 248.534 577.308 249.597 570.88 249.597ZM581.378 223.236C586.717 223.236 591.227 221.784 594.908 218.881C598.641 215.926 601.492 211.804 603.462 206.517C605.484 201.229 606.495 195.034 606.495 187.932C606.495 180.829 605.51 174.66 603.54 169.424C601.57 164.188 598.718 160.145 594.986 157.293C591.253 154.442 586.717 153.016 581.378 153.016C575.934 153.016 571.346 154.494 567.614 157.449C563.881 160.404 561.056 164.499 559.138 169.735C557.219 174.971 556.26 181.037 556.26 187.932C556.26 194.878 557.219 201.021 559.138 206.361C561.108 211.649 563.933 215.796 567.614 218.803C571.346 221.758 575.934 223.236 581.378 223.236ZM742.676 196.796V128.21H775.802V247.653H743.998V225.957H742.753C740.058 232.956 735.573 238.581 729.301 242.832C723.08 247.083 715.485 249.208 706.516 249.208C698.533 249.208 691.508 247.394 685.443 243.765C679.377 240.136 674.634 234.978 671.212 228.29C667.843 221.603 666.132 213.593 666.08 204.262V128.21H699.207V198.352C699.258 205.402 701.151 210.975 704.883 215.071C708.616 219.166 713.618 221.214 719.891 221.214C723.883 221.214 727.616 220.306 731.089 218.492C734.562 216.626 737.362 213.878 739.487 210.249C741.665 206.62 742.727 202.136 742.676 196.796ZM901.68 162.27L871.352 164.136C870.834 161.544 869.719 159.211 868.009 157.138C866.298 155.012 864.043 153.327 861.243 152.083C858.496 150.787 855.204 150.139 851.368 150.139C846.235 150.139 841.907 151.228 838.381 153.405C834.856 155.531 833.093 158.382 833.093 161.959C833.093 164.81 834.234 167.221 836.515 169.191C838.796 171.161 842.71 172.742 848.257 173.934L869.875 178.289C881.487 180.674 890.145 184.51 895.848 189.798C901.55 195.086 904.401 202.032 904.401 210.638C904.401 218.466 902.094 225.335 897.481 231.245C892.918 237.155 886.646 241.769 878.662 245.087C870.73 248.353 861.58 249.986 851.212 249.986C835.4 249.986 822.803 246.694 813.42 240.11C804.088 233.474 798.619 224.454 797.012 213.049L829.594 211.338C830.579 216.159 832.964 219.84 836.748 222.38C840.533 224.869 845.38 226.113 851.29 226.113C857.096 226.113 861.762 224.998 865.287 222.769C868.864 220.488 870.679 217.559 870.73 213.982C870.679 210.975 869.408 208.513 866.92 206.594C864.432 204.624 860.595 203.121 855.411 202.084L834.727 197.963C823.062 195.63 814.379 191.586 808.676 185.832C803.025 180.078 800.2 172.742 800.2 163.825C800.2 156.153 802.274 149.543 806.421 143.996C810.62 138.449 816.504 134.172 824.073 131.165C831.694 128.158 840.61 126.655 850.823 126.655C865.909 126.655 877.781 129.843 886.438 136.22C895.148 142.596 900.228 151.28 901.68 162.27ZM988.793 128.21V153.094H916.863V128.21H988.793ZM933.193 99.5938H966.319V210.949C966.319 214.008 966.786 216.392 967.719 218.103C968.652 219.762 969.948 220.929 971.607 221.603C973.318 222.276 975.288 222.613 977.517 222.613C979.072 222.613 980.628 222.484 982.183 222.225C983.738 221.914 984.931 221.68 985.76 221.525L990.97 246.175C989.311 246.694 986.978 247.29 983.971 247.964C980.965 248.69 977.31 249.13 973.007 249.286C965.023 249.597 958.025 248.534 952.011 246.098C946.049 243.661 941.41 239.877 938.092 234.744C934.774 229.612 933.141 223.132 933.193 215.304V99.5938Z" fill="white"/>
</svg>
