<svg width="500" height="529" viewBox="0 0 500 529" fill="none" xmlns="http://www.w3.org/2000/svg">
<path d="M264.1 47.8511L69.9785 153.735L140.568 192.207V298.091L264.1 365.504L387.631 298.091V192.207L422.926 172.971V294.914H458.221V153.735L264.1 47.8511ZM384.455 153.735L264.1 219.384L143.745 153.735L264.1 88.0871L384.455 153.735ZM352.336 277.267L264.1 325.268L175.863 277.267V211.442L264.1 259.62L352.336 211.442V277.267Z" fill="url(#paint0_linear_102_4675)"/>
<path d="M123.14 482.809V406.699H174.425V419.966H139.231V438.102H171.786V451.369H139.231V469.542H174.574V482.809H123.14ZM207.955 483.738C203.62 483.738 199.693 482.623 196.175 480.393C192.681 478.139 189.906 474.831 187.85 470.471C185.819 466.086 184.803 460.709 184.803 454.342C184.803 447.801 185.856 442.363 187.962 438.027C190.068 433.667 192.867 430.409 196.36 428.253C199.879 426.073 203.731 424.983 207.918 424.983C211.114 424.983 213.778 425.528 215.908 426.618C218.064 427.684 219.798 429.022 221.111 430.632C222.449 432.218 223.465 433.778 224.159 435.314H224.642V406.699H240.436V482.809H224.828V473.667H224.159C223.415 475.253 222.362 476.826 221 478.387C219.662 479.923 217.915 481.199 215.76 482.214C213.629 483.23 211.028 483.738 207.955 483.738ZM212.972 471.14C215.524 471.14 217.68 470.446 219.439 469.059C221.223 467.646 222.585 465.677 223.527 463.15C224.493 460.623 224.976 457.662 224.976 454.268C224.976 450.873 224.505 447.925 223.564 445.423C222.622 442.921 221.26 440.988 219.476 439.625C217.692 438.263 215.524 437.581 212.972 437.581C210.371 437.581 208.178 438.288 206.395 439.7C204.611 441.112 203.26 443.069 202.344 445.572C201.427 448.074 200.969 450.973 200.969 454.268C200.969 457.588 201.427 460.524 202.344 463.075C203.285 465.603 204.636 467.585 206.395 469.022C208.178 470.434 210.371 471.14 212.972 471.14ZM290.058 458.504V425.726H305.89V482.809H290.69V472.441H290.095C288.807 475.785 286.664 478.473 283.666 480.505C280.693 482.537 277.064 483.552 272.777 483.552C268.962 483.552 265.605 482.685 262.706 480.951C259.807 479.217 257.54 476.751 255.905 473.555C254.295 470.359 253.477 466.532 253.452 462.072V425.726H269.284V459.248C269.309 462.617 270.213 465.28 271.997 467.238C273.781 469.195 276.172 470.174 279.169 470.174C281.077 470.174 282.861 469.74 284.521 468.873C286.181 467.981 287.519 466.668 288.535 464.934C289.575 463.199 290.083 461.056 290.058 458.504ZM366.048 442.004L351.554 442.896C351.306 441.657 350.774 440.542 349.956 439.551C349.138 438.535 348.061 437.73 346.723 437.135C345.41 436.516 343.837 436.206 342.003 436.206C339.55 436.206 337.482 436.727 335.797 437.767C334.112 438.783 333.27 440.146 333.27 441.855C333.27 443.218 333.815 444.37 334.905 445.311C335.995 446.253 337.866 447.009 340.517 447.578L350.848 449.659C356.398 450.799 360.535 452.633 363.261 455.16C365.986 457.687 367.348 461.007 367.348 465.119C367.348 468.86 366.246 472.143 364.041 474.968C361.861 477.792 358.863 479.997 355.047 481.583C351.257 483.144 346.884 483.924 341.929 483.924C334.372 483.924 328.352 482.351 323.867 479.204C319.408 476.033 316.794 471.722 316.026 466.271L331.597 465.454C332.068 467.758 333.208 469.517 335.016 470.731C336.825 471.92 339.142 472.515 341.966 472.515C344.741 472.515 346.971 471.982 348.655 470.917C350.365 469.827 351.232 468.427 351.257 466.717C351.232 465.28 350.625 464.104 349.436 463.187C348.247 462.245 346.413 461.527 343.936 461.031L334.05 459.062C328.476 457.947 324.326 456.014 321.601 453.264C318.9 450.514 317.55 447.009 317.55 442.747C317.55 439.08 318.541 435.921 320.523 433.271C322.53 430.62 325.342 428.576 328.959 427.139C332.601 425.702 336.862 424.983 341.743 424.983C348.953 424.983 354.626 426.507 358.764 429.554C362.926 432.602 365.354 436.751 366.048 442.004ZM407.68 425.726V437.619H373.304V425.726H407.68ZM381.108 412.05H396.94V465.268C396.94 466.73 397.163 467.869 397.609 468.687C398.055 469.48 398.674 470.037 399.467 470.359C400.284 470.681 401.226 470.843 402.291 470.843C403.034 470.843 403.778 470.781 404.521 470.657C405.264 470.508 405.834 470.397 406.23 470.322L408.72 482.103C407.928 482.351 406.813 482.636 405.376 482.958C403.939 483.305 402.192 483.515 400.136 483.59C396.32 483.738 392.976 483.23 390.102 482.066C387.252 480.901 385.035 479.093 383.449 476.64C381.864 474.187 381.083 471.09 381.108 467.349V412.05Z" fill="url(#paint1_linear_102_4675)"/>
<defs>
<linearGradient id="paint0_linear_102_4675" x1="264.097" y1="206.677" x2="264.097" y2="363.202" gradientUnits="userSpaceOnUse">
<stop stop-color="#111928"/>
<stop offset="1" stop-color="#6B7280"/>
</linearGradient>
<linearGradient id="paint1_linear_102_4675" x1="262.893" y1="392.855" x2="262.893" y2="462.401" gradientUnits="userSpaceOnUse">
<stop/>
<stop offset="1" stop-color="#6B7280"/>
</linearGradient>
</defs>
</svg>
